<?xml version="1.0" ?><!DOCTYPE svg  PUBLIC '-//W3C//DTD SVG 1.1//EN'  'http://www.w3.org/Graphics/SVG/1.1/DTD/svg11.dtd'><svg enable-background="new 0 0 128 128" height="128px" id="Layer_1" version="1.1" viewBox="0 0 128 128" width="128px" xml:space="preserve" xmlns="http://www.w3.org/2000/svg" xmlns:xlink="http://www.w3.org/1999/xlink"><path d="M128,112c0,8.8-7.2,16-16,16H16c-8.8,0-16-7.2-16-16V16C0,7.2,7.2,0,16,0h96c8.8,0,16,7.2,16,16V112z" fill="#F54B00"/><g><path d="M114,61.087c0-6.409-5.215-11.623-11.623-11.623c-2.932,0-5.605,1.101-7.654,2.899   c-7.283-4.678-16.91-7.723-27.572-8.255l5.605-17.721l15.297,3.604c0.172,5.163,4.414,9.312,9.619,9.312   c5.312,0,9.637-4.322,9.637-9.636s-4.322-9.636-9.637-9.636c-3.857,0-7.186,2.285-8.723,5.567L71.76,21.554   c-1.141-0.268-2.295,0.388-2.646,1.504l-6.636,20.979c-11.352,0.223-21.65,3.288-29.369,8.172   c-2.023-1.709-4.636-2.745-7.484-2.745C19.213,49.464,14,54.678,14,61.087c0,4.081,2.118,7.668,5.307,9.743   c-0.163,1.039-0.25,2.094-0.25,3.162c0,16.527,20.068,29.977,44.738,29.977c24.667,0,44.738-13.449,44.738-29.977   c0-0.99-0.076-1.969-0.217-2.936C111.713,69.027,114,65.324,114,61.087z M97.672,24.51c2.846,0,5.158,2.314,5.158,5.158   c0,2.845-2.312,5.158-5.158,5.158s-5.158-2.313-5.158-5.158C92.514,26.825,94.826,24.51,97.672,24.51z M18.478,61.087   c0-3.94,3.205-7.146,7.146-7.146c1.33,0,2.574,0.373,3.643,1.011c-3.987,3.24-6.971,7.052-8.654,11.219   C19.295,64.875,18.478,63.076,18.478,61.087z M104.057,73.992c0,14.059-18.062,25.498-40.261,25.498   c-22.201,0-40.262-11.439-40.262-25.498c0-0.494,0.027-0.984,0.071-1.471c0.136-1.496,0.479-2.955,1.006-4.371   c1.365-3.672,3.983-7.04,7.56-9.911c1.145-0.919,2.385-1.787,3.711-2.598c7.244-4.421,17.084-7.148,27.914-7.148   c10.988,0,20.957,2.805,28.228,7.34c1.33,0.829,2.566,1.717,3.705,2.656c3.435,2.829,5.945,6.125,7.267,9.711   c0.522,1.42,0.866,2.883,0.996,4.383C104.031,73.051,104.057,73.52,104.057,73.992z M107.092,66.439   c-1.637-4.21-4.611-8.062-8.598-11.344c1.119-0.728,2.451-1.155,3.883-1.155c3.939,0,7.146,3.205,7.146,7.146   C109.521,63.219,108.578,65.129,107.092,66.439z" fill="#FFFFFF"/><path d="M55.911,68.602c0-3.774-3.062-6.941-6.838-6.941c-3.776,0-6.941,3.167-6.941,6.941   c0,3.775,3.166,6.838,6.941,6.838C52.848,75.438,55.911,72.377,55.911,68.602z" fill="#FFFFFF"/><path d="M79.029,61.659c-3.775,0-6.951,3.166-6.951,6.94c0,3.777,3.176,6.838,6.951,6.838   c3.777,0,6.838-3.061,6.838-6.838C85.867,64.824,82.807,61.659,79.029,61.659z" fill="#FFFFFF"/><path d="M77.1,85.178c-2.531,2.529-6.799,3.758-13.048,3.758c-0.018,0-0.035,0.006-0.053,0.006   c-0.02,0-0.035-0.006-0.055-0.006c-6.25,0-10.516-1.229-13.045-3.758c-0.874-0.873-2.292-0.873-3.166,0   c-0.874,0.875-0.874,2.293,0,3.166c3.411,3.412,8.715,5.07,16.211,5.07c0.02,0,0.035-0.006,0.055-0.006   c0.018,0,0.035,0.006,0.053,0.006c7.496,0,12.8-1.658,16.214-5.068c0.875-0.875,0.875-2.291,0.002-3.166   C79.393,84.305,77.975,84.305,77.1,85.178z" fill="#FFFFFF"/></g><g id="Layer_3" transform="translate(-56.49872,470.00082)"/></svg>